<mxfile host="app.diagrams.net" modified="2022-02-26T19:26:23.566Z" agent="5.0 (Windows NT 10.0; Win64; x64) AppleWebKit/537.36 (KHTML, like Gecko) Chrome/98.0.4758.102 Safari/537.36" etag="Q4910a32U6CbjVbKsIHU" version="16.6.4" type="github">
  <diagram id="mVrhydkxD0Cs-GL3BYvf" name="Page-1">
    <mxGraphModel dx="978" dy="575" grid="1" gridSize="10" guides="1" tooltips="1" connect="1" arrows="1" fold="1" page="1" pageScale="1" pageWidth="850" pageHeight="1100" math="0" shadow="0">
      <root>
        <mxCell id="0" />
        <mxCell id="1" parent="0" />
        <mxCell id="FAFSozOND5ChxRqs9UHx-34" value="`" style="shape=umlActor;verticalLabelPosition=bottom;verticalAlign=top;html=1;outlineConnect=0;" parent="1" vertex="1">
          <mxGeometry x="150" y="175" width="30" height="60" as="geometry" />
        </mxCell>
        <mxCell id="FAFSozOND5ChxRqs9UHx-35" value="Actor" style="shape=umlActor;verticalLabelPosition=bottom;verticalAlign=top;html=1;outlineConnect=0;" parent="1" vertex="1">
          <mxGeometry x="150" y="335" width="30" height="60" as="geometry" />
        </mxCell>
        <mxCell id="FAFSozOND5ChxRqs9UHx-36" value="Actor" style="shape=umlActor;verticalLabelPosition=bottom;verticalAlign=top;html=1;outlineConnect=0;" parent="1" vertex="1">
          <mxGeometry x="150" y="30" width="30" height="60" as="geometry" />
        </mxCell>
        <mxCell id="FAFSozOND5ChxRqs9UHx-37" value="" style="ellipse;whiteSpace=wrap;html=1;" parent="1" vertex="1">
          <mxGeometry x="330" y="230" width="140" height="60" as="geometry" />
        </mxCell>
        <mxCell id="FAFSozOND5ChxRqs9UHx-38" value="Create Membership" style="text;html=1;strokeColor=none;fillColor=none;align=center;verticalAlign=middle;whiteSpace=wrap;rounded=0;" parent="1" vertex="1">
          <mxGeometry x="357.5" y="245" width="85" height="30" as="geometry" />
        </mxCell>
        <mxCell id="FAFSozOND5ChxRqs9UHx-41" value="" style="endArrow=classic;html=1;rounded=0;exitX=1;exitY=0.5;exitDx=0;exitDy=0;" parent="1" source="FAFSozOND5ChxRqs9UHx-62" target="FAFSozOND5ChxRqs9UHx-37" edge="1">
          <mxGeometry width="50" height="50" relative="1" as="geometry">
            <mxPoint x="190" y="190" as="sourcePoint" />
            <mxPoint x="230" y="165" as="targetPoint" />
          </mxGeometry>
        </mxCell>
        <mxCell id="FAFSozOND5ChxRqs9UHx-44" value="" style="endArrow=classic;html=1;rounded=0;entryX=0;entryY=0.5;entryDx=0;entryDy=0;exitX=0.5;exitY=0;exitDx=0;exitDy=0;" parent="1" source="FAFSozOND5ChxRqs9UHx-64" target="FAFSozOND5ChxRqs9UHx-37" edge="1">
          <mxGeometry width="50" height="50" relative="1" as="geometry">
            <mxPoint x="180" y="350" as="sourcePoint" />
            <mxPoint x="230" y="300" as="targetPoint" />
          </mxGeometry>
        </mxCell>
        <mxCell id="FAFSozOND5ChxRqs9UHx-45" value="" style="ellipse;whiteSpace=wrap;html=1;" parent="1" vertex="1">
          <mxGeometry x="330" y="120" width="140" height="60" as="geometry" />
        </mxCell>
        <mxCell id="FAFSozOND5ChxRqs9UHx-46" value="" style="ellipse;whiteSpace=wrap;html=1;" parent="1" vertex="1">
          <mxGeometry x="330" y="420" width="140" height="60" as="geometry" />
        </mxCell>
        <mxCell id="FAFSozOND5ChxRqs9UHx-47" value="Response" style="text;html=1;strokeColor=none;fillColor=none;align=center;verticalAlign=middle;whiteSpace=wrap;rounded=0;" parent="1" vertex="1">
          <mxGeometry x="357.5" y="105" width="85" height="90" as="geometry" />
        </mxCell>
        <mxCell id="FAFSozOND5ChxRqs9UHx-48" value="Request" style="text;html=1;strokeColor=none;fillColor=none;align=center;verticalAlign=middle;whiteSpace=wrap;rounded=0;" parent="1" vertex="1">
          <mxGeometry x="357.5" y="435" width="85" height="30" as="geometry" />
        </mxCell>
        <mxCell id="FAFSozOND5ChxRqs9UHx-49" value="Buyer" style="text;html=1;strokeColor=none;fillColor=#FFFFFF;align=center;verticalAlign=middle;whiteSpace=wrap;rounded=0;" parent="1" vertex="1">
          <mxGeometry x="135" y="395" width="60" height="30" as="geometry" />
        </mxCell>
        <mxCell id="FAFSozOND5ChxRqs9UHx-50" value="Seller" style="text;html=1;align=center;verticalAlign=middle;whiteSpace=wrap;rounded=0;fillColor=#FFFFFF;" parent="1" vertex="1">
          <mxGeometry x="120" y="235" width="85" height="30" as="geometry" />
        </mxCell>
        <mxCell id="FAFSozOND5ChxRqs9UHx-51" value="Validator" style="text;html=1;strokeColor=none;fillColor=#FFFFFF;align=center;verticalAlign=middle;whiteSpace=wrap;rounded=0;" parent="1" vertex="1">
          <mxGeometry x="135" y="90" width="60" height="30" as="geometry" />
        </mxCell>
        <mxCell id="FAFSozOND5ChxRqs9UHx-52" value="" style="endArrow=classic;html=1;rounded=0;entryX=0;entryY=0.5;entryDx=0;entryDy=0;startArrow=none;" parent="1" source="FAFSozOND5ChxRqs9UHx-62" target="FAFSozOND5ChxRqs9UHx-45" edge="1">
          <mxGeometry width="50" height="50" relative="1" as="geometry">
            <mxPoint x="180" y="190" as="sourcePoint" />
            <mxPoint x="230" y="140" as="targetPoint" />
          </mxGeometry>
        </mxCell>
        <mxCell id="FAFSozOND5ChxRqs9UHx-53" value="" style="endArrow=classic;html=1;rounded=0;entryX=0;entryY=0.5;entryDx=0;entryDy=0;startArrow=none;exitX=0.5;exitY=1;exitDx=0;exitDy=0;" parent="1" source="FAFSozOND5ChxRqs9UHx-64" target="FAFSozOND5ChxRqs9UHx-46" edge="1">
          <mxGeometry width="50" height="50" relative="1" as="geometry">
            <mxPoint x="180" y="350" as="sourcePoint" />
            <mxPoint x="230" y="300" as="targetPoint" />
          </mxGeometry>
        </mxCell>
        <mxCell id="FAFSozOND5ChxRqs9UHx-54" value="" style="endArrow=classic;html=1;rounded=0;startArrow=none;" parent="1" source="FAFSozOND5ChxRqs9UHx-57" edge="1">
          <mxGeometry width="50" height="50" relative="1" as="geometry">
            <mxPoint x="180" y="50" as="sourcePoint" />
            <mxPoint x="330" y="50" as="targetPoint" />
          </mxGeometry>
        </mxCell>
        <mxCell id="FAFSozOND5ChxRqs9UHx-55" value="" style="ellipse;whiteSpace=wrap;html=1;" parent="1" vertex="1">
          <mxGeometry x="330" y="20" width="140" height="60" as="geometry" />
        </mxCell>
        <mxCell id="FAFSozOND5ChxRqs9UHx-56" value="Validate Request" style="text;html=1;strokeColor=none;fillColor=none;align=center;verticalAlign=middle;whiteSpace=wrap;rounded=0;" parent="1" vertex="1">
          <mxGeometry x="357.5" y="35" width="85" height="30" as="geometry" />
        </mxCell>
        <mxCell id="FAFSozOND5ChxRqs9UHx-57" value="" style="ellipse;whiteSpace=wrap;html=1;aspect=fixed;" parent="1" vertex="1">
          <mxGeometry x="175" y="45" width="10" height="10" as="geometry" />
        </mxCell>
        <mxCell id="FAFSozOND5ChxRqs9UHx-58" value="" style="endArrow=none;html=1;rounded=0;" parent="1" target="FAFSozOND5ChxRqs9UHx-57" edge="1">
          <mxGeometry width="50" height="50" relative="1" as="geometry">
            <mxPoint x="180" y="50" as="sourcePoint" />
            <mxPoint x="330" y="50" as="targetPoint" />
          </mxGeometry>
        </mxCell>
        <mxCell id="FAFSozOND5ChxRqs9UHx-62" value="" style="ellipse;whiteSpace=wrap;html=1;aspect=fixed;" parent="1" vertex="1">
          <mxGeometry x="180" y="190" width="10" height="10" as="geometry" />
        </mxCell>
        <mxCell id="FAFSozOND5ChxRqs9UHx-63" value="" style="endArrow=none;html=1;rounded=0;entryX=0;entryY=0.5;entryDx=0;entryDy=0;" parent="1" target="FAFSozOND5ChxRqs9UHx-62" edge="1">
          <mxGeometry width="50" height="50" relative="1" as="geometry">
            <mxPoint x="180" y="190" as="sourcePoint" />
            <mxPoint x="330" y="150" as="targetPoint" />
          </mxGeometry>
        </mxCell>
        <mxCell id="FAFSozOND5ChxRqs9UHx-64" value="" style="ellipse;whiteSpace=wrap;html=1;aspect=fixed;" parent="1" vertex="1">
          <mxGeometry x="180" y="350" width="10" height="10" as="geometry" />
        </mxCell>
        <mxCell id="FAFSozOND5ChxRqs9UHx-65" value="" style="endArrow=none;html=1;rounded=0;entryX=0;entryY=0.5;entryDx=0;entryDy=0;" parent="1" target="FAFSozOND5ChxRqs9UHx-64" edge="1">
          <mxGeometry width="50" height="50" relative="1" as="geometry">
            <mxPoint x="180" y="350" as="sourcePoint" />
            <mxPoint x="330" y="400" as="targetPoint" />
          </mxGeometry>
        </mxCell>
        <mxCell id="FAFSozOND5ChxRqs9UHx-69" value="&lt;b&gt;Fig. Use case diagram for Badminton Hub Blockchain Application&lt;/b&gt;" style="text;html=1;strokeColor=none;fillColor=none;align=center;verticalAlign=middle;whiteSpace=wrap;rounded=0;" parent="1" vertex="1">
          <mxGeometry x="120" y="480" width="425" height="30" as="geometry" />
        </mxCell>
        <mxCell id="YJHCWp5jNgbfwm5vsmOv-2" value="" style="ellipse;whiteSpace=wrap;html=1;" vertex="1" parent="1">
          <mxGeometry x="330" y="320" width="140" height="60" as="geometry" />
        </mxCell>
        <mxCell id="YJHCWp5jNgbfwm5vsmOv-3" value="Settle Payment" style="text;html=1;strokeColor=none;fillColor=none;align=center;verticalAlign=middle;whiteSpace=wrap;rounded=0;" vertex="1" parent="1">
          <mxGeometry x="370" y="335" width="60" height="30" as="geometry" />
        </mxCell>
        <mxCell id="YJHCWp5jNgbfwm5vsmOv-13" value="" style="endArrow=classic;html=1;rounded=0;exitX=0;exitY=1;exitDx=0;exitDy=0;entryX=0;entryY=0.5;entryDx=0;entryDy=0;" edge="1" parent="1" source="FAFSozOND5ChxRqs9UHx-64" target="YJHCWp5jNgbfwm5vsmOv-2">
          <mxGeometry width="50" height="50" relative="1" as="geometry">
            <mxPoint x="290" y="300" as="sourcePoint" />
            <mxPoint x="340" y="250" as="targetPoint" />
          </mxGeometry>
        </mxCell>
      </root>
    </mxGraphModel>
  </diagram>
</mxfile>
